<svg width="45" height="45" viewBox="0 0 45 45" fill="none" xmlns="http://www.w3.org/2000/svg">
<path d="M18.5801 24.3746V20.6246C18.5801 20.2069 18.746 19.8063 19.0414 19.5109C19.3368 19.2155 19.7374 19.0496 20.1551 19.0496C20.5728 19.0496 20.9734 19.2155 21.2688 19.5109C21.5641 19.8063 21.7301 20.2069 21.7301 20.6246V24.3746C21.7301 24.7923 21.5641 25.1929 21.2688 25.4883C20.9734 25.7837 20.5728 25.9496 20.1551 25.9496C19.7374 25.9496 19.3368 25.7837 19.0414 25.4883C18.746 25.1929 18.5801 24.7923 18.5801 24.3746ZM36.2238 2.21211V43.1246C36.2239 43.2821 36.1865 43.4373 36.1148 43.5775C36.043 43.7176 35.939 43.8388 35.8113 43.9309C35.6439 44.0565 35.4393 44.1225 35.2301 44.1184H34.9301L15.3551 38.0434C15.1519 37.9774 14.9742 37.85 14.8466 37.6787C14.719 37.5074 14.6477 37.3007 14.6426 37.0871V8.24961C14.6438 8.03283 14.7133 7.82194 14.8412 7.64691C14.9691 7.47188 15.1489 7.34161 15.3551 7.27461L29.5863 2.88711H10.8363V43.0121C10.8031 43.2546 10.6832 43.4768 10.4988 43.6376C10.3144 43.7985 10.0779 43.8871 9.8332 43.8871C9.58849 43.8871 9.35205 43.7985 9.16763 43.6376C8.98322 43.4768 8.8633 43.2546 8.83008 43.0121V1.87461C8.82967 1.62051 8.92661 1.37591 9.10098 1.19108C9.27535 1.00626 9.51389 0.895242 9.76758 0.880859H35.1551C35.4204 0.880814 35.6751 0.98491 35.8645 1.17075C36.0538 1.3566 36.1627 1.60934 36.1676 1.87461C36.2057 1.98301 36.2247 2.0972 36.2238 2.21211ZM34.2176 3.56211L16.6676 8.98086V36.3371L34.2176 41.7559V3.56211Z" fill="black"/>
</svg>
